<mxfile host="app.diagrams.net" modified="2024-06-15T13:06:17.557Z" agent="Mozilla/5.0 (X11; Linux x86_64; rv:126.0) Gecko/20100101 Firefox/126.0" version="24.5.4" etag="OKP0XVAC2BC42MDrejBT" type="github">
  <diagram name="Page-1" id="Ip8uz0VSxecHo3SaN6Rd">
    <mxGraphModel>
      <root>
        <mxCell id="0" />
        <mxCell id="1" parent="0" />
      </root>
    </mxGraphModel>
  </diagram>
</mxfile>
